<svg width="356" height="100" viewBox="0 0 356 100" fill="none" xmlns="http://www.w3.org/2000/svg">
<g clip-path="url(#clip0_2271_9604)">
<path d="M0.389648 30.2058V69.8589C0.389648 73.5141 2.27613 76.837 5.38327 78.6092L40.2277 98.5465C43.3348 100.319 47.1078 100.319 50.104 98.5465L84.9484 78.6092C88.0555 76.837 89.942 73.5141 89.942 69.9697V30.2058C89.942 26.6613 88.0555 23.3385 84.9484 21.5662L50.104 1.6289C46.9968 -0.143308 43.2239 -0.143308 40.2277 1.6289L5.38327 21.5662C2.27613 23.4492 0.389648 26.6613 0.389648 30.2058Z" fill="#68A694"/>
<path fill-rule="evenodd" clip-rule="evenodd" d="M66.7495 27.2496C66.9714 22.376 66.1946 19.0531 64.9739 18.7208C63.7533 18.3885 61.5339 20.8253 59.2035 24.5913C56.7622 28.5787 54.0989 33.8954 52.3234 38.9905C50.7699 43.3102 50.215 47.5192 50.104 51.1744V51.2852C46.8859 50.0668 43.3349 50.0668 40.0058 51.2852V51.1744C40.0058 47.5192 39.34 43.3102 37.7864 38.9905C36.0109 33.8954 33.3477 28.5787 30.9063 24.5913C28.576 20.8253 26.3566 18.3885 25.1359 18.7208C23.8043 19.0531 23.1385 22.376 23.3604 27.2496C23.4714 31.4586 24.3591 36.886 25.9127 42.6457C27.4663 48.2946 29.6857 53.0574 32.5709 56.8233L25.4688 71.8871C25.025 72.884 24.803 73.9916 24.803 75.0992C24.803 77.8683 26.3566 80.4158 28.6869 81.745L42.6691 89.3876C44.1117 90.163 45.9982 90.163 47.4408 89.3876L61.4229 81.8558C63.8643 80.5266 65.4178 77.9791 65.4178 75.21V75.0992C65.4178 73.9916 65.1959 72.884 64.752 71.8871L57.65 56.8233C60.5352 53.0574 62.7546 48.2946 64.3081 42.6457C65.8617 36.886 66.6385 31.4586 66.7495 27.2496Z" fill="#FFF9F8"/>
</g>
<path fill-rule="evenodd" clip-rule="evenodd" d="M121.555 30.3684H109.071V70.4438H124.008C128.578 70.4438 132.145 69.3275 134.82 67.3181C137.495 65.1972 138.832 62.4064 138.832 58.7226C138.832 56.1551 138.275 54.1457 137.16 52.5829C136.046 51.1317 134.262 50.0154 131.699 49.4572V49.234C133.482 48.8991 135.043 48.006 136.157 46.4432C137.272 44.8804 137.829 42.871 137.829 40.5268C137.829 37.0662 136.492 34.3871 133.928 32.8243C131.364 31.1498 127.24 30.3684 121.555 30.3684ZM122.559 46.22H117.654V37.1779H122.113C124.565 37.1779 126.348 37.5128 127.463 38.1826C128.578 38.8523 129.135 39.9686 129.135 41.5315C129.135 43.2059 128.578 44.4339 127.574 45.1036C126.571 45.8851 124.899 46.22 122.559 46.22ZM117.654 63.5227V53.0294H123.004C127.797 53.0294 130.138 54.7039 130.138 58.0528C130.138 59.9505 129.581 61.2901 128.466 62.1831C127.352 63.0762 125.568 63.5227 123.227 63.5227H117.654ZM163.02 66.5367V70.4438V70.5554H170.6V39.857H162.24V54.2574C162.24 57.9412 161.683 60.5087 160.68 62.0715C159.565 63.6343 157.893 64.4157 155.552 64.4157C153.769 64.4157 152.543 63.8576 151.762 62.7413C150.982 61.625 150.536 59.9505 150.536 57.7179V39.857H142.176V59.7273C142.176 63.4111 143.18 66.2018 144.963 68.0996C146.746 69.9973 149.533 71.0019 153.1 71.0019C155.218 71.0019 157.113 70.6671 158.785 69.8856C160.457 69.1042 161.683 67.9879 162.574 66.5367H163.02ZM195.457 70.4438H203.816H203.928V50.5735C203.928 46.8897 203.036 44.099 201.141 42.2013C199.246 40.3035 196.571 39.2989 193.004 39.2989C190.887 39.2989 189.103 39.6338 187.431 40.4152C185.759 41.1966 184.422 42.3129 183.53 43.7641H183.084V39.857H175.504V70.4438H183.753V56.0434C183.753 52.3596 184.31 49.7921 185.313 48.2293C186.428 46.6665 188.1 45.8851 190.441 45.8851C192.224 45.8851 193.45 46.4432 194.23 47.5595C195.011 48.6758 195.457 50.3503 195.457 52.5829V70.4438ZM228.562 70.4438H236.922V50.5735C236.922 46.8897 236.03 44.099 234.135 42.2013C232.24 40.3035 229.565 39.2989 225.998 39.2989C223.88 39.2989 222.097 39.6338 220.425 40.4152C218.753 41.1966 217.415 42.3129 216.523 43.7641H216.078V39.857H208.498V70.4438H216.858V56.0434C216.858 52.3596 217.415 49.7921 218.418 48.2293C219.533 46.6665 221.205 45.8851 223.546 45.8851C225.329 45.8851 226.555 46.4432 227.336 47.5595C228.116 48.6758 228.562 50.3503 228.562 52.5829V70.4438ZM269.358 39.857H260.329L253.418 60.1738H253.307L246.508 39.7454H237.367L240.488 47.5595L249.517 70.2205L249.071 71.7834C248.514 73.6811 247.622 75.0206 246.508 75.9137C245.393 76.8067 244.055 77.2533 242.606 77.2533C241.38 77.2533 240.266 77.1416 239.262 76.9184V83.5046C240.6 83.8395 242.049 83.9511 243.498 83.9511C246.396 83.9511 248.96 83.1697 251.189 81.6069C253.418 80.044 255.09 77.6998 256.316 74.4625L269.358 39.857Z" fill="#011638"/>
<path d="M272.056 30.2905H280.537V70.3652H272.056V30.2905Z" fill="#011638"/>
<path fill-rule="evenodd" clip-rule="evenodd" d="M305.59 70.3651H313.951V50.4937C313.951 46.8091 313.059 44.0207 311.164 42.1203C309.269 40.224 306.594 39.2157 303.027 39.2157C300.908 39.2157 299.125 39.5518 297.453 40.3319C295.782 41.112 294.443 42.2281 293.551 43.6804H293.103V39.7717H285.522V70.3568H293.883V55.9584C293.883 52.2738 294.438 49.7053 295.442 48.1452C296.558 46.5808 298.229 45.8008 300.568 45.8008C302.351 45.8008 303.579 46.3609 304.359 47.473C305.138 48.5891 305.586 50.2655 305.586 52.4979V70.3568L305.59 70.3651Z" fill="#011638"/>
<path d="M317.306 54.6721C317.306 44.7551 323.577 38.419 333.609 38.419C336.653 38.419 339.403 39.0165 341.791 40.2696L341.074 47.0207C339.104 46.0663 336.836 45.585 334.447 45.585C329.727 45.585 325.966 48.2738 325.966 54.6057C325.966 60.9377 329.906 63.7468 334.268 63.7468C336.715 63.7468 339.287 63.2115 341.613 62.0124L341.016 69.2406C338.507 70.4356 335.819 70.9128 333.551 70.9128C323.519 70.9128 317.306 64.5186 317.306 54.6597V54.6721Z" fill="#011638"/>
<path d="M345.831 65.3112C345.831 62.1951 347.672 60.6224 350.517 60.6224C353.362 60.6224 355.203 62.1992 355.203 65.3112C355.203 68.4233 353.329 69.9668 350.517 69.9668C347.705 69.9668 345.831 68.3942 345.831 65.3112Z" fill="#011638"/>
<defs>
<clipPath id="clip0_2271_9604">
<rect width="90.4089" height="99.7615" fill="white"/>
</clipPath>
</defs>
</svg>
